<svg xmlns="http://www.w3.org/2000/svg" viewBox="0 0 1000 967" font-family="Segoe UI, Helvetica, Arial, sans-serif">
<rect width="1000" height="967" fill="#1f2a24"/>
<circle cx="483.3" cy="333.3" r="4" fill="#3a4a42"/>
<circle cx="666.7" cy="516.7" r="4" fill="#3a4a42"/>
<circle cx="383.3" cy="533.3" r="4" fill="#3a4a42"/>
<circle cx="600.0" cy="633.3" r="4" fill="#3a4a42"/>
<circle cx="333.3" cy="633.3" r="4" fill="#3a4a42"/>
<circle cx="583.3" cy="400.0" r="4" fill="#3a4a42"/>
<path d="M583.3 400.0 L491.7 583.3" fill="none" stroke="#e6bb6a" stroke-width="2.5" stroke-dasharray="7 6" opacity="0.85"/>
<g class="qstep" data-keys="giver,turnin" data-steps="1,4">
<circle cx="583.3" cy="400.0" r="21" fill="#f0c419" opacity="0.18"/>
<circle cx="583.3" cy="400.0" r="14" fill="#f0c419" stroke="#11160f" stroke-width="2"/>
<text x="583.3" y="405.0" fill="#11160f" font-size="15" font-weight="bold" text-anchor="middle">1·4</text>
</g>
<g class="qstep" data-keys="drowned_votary,drowned_offering" data-steps="2,3">
<circle cx="491.7" cy="583.3" r="21" fill="#d9534f" opacity="0.18"/>
<circle cx="491.7" cy="583.3" r="14" fill="#d9534f" stroke="#11160f" stroke-width="2"/>
<text x="491.7" y="588.3" fill="#11160f" font-size="15" font-weight="bold" text-anchor="middle">2·3</text>
</g>
<rect x="10" y="10" width="360" height="136" rx="10" fill="#11160f" opacity="0.82"/>
<text x="22" y="34" fill="#cfe3d6" font-size="14" font-weight="bold">Where to go — N ↑</text>
<circle cx="30" cy="48" r="9" fill="#f0c419"/>
<text x="30" y="51.5" fill="#11160f" font-size="11" font-weight="bold" text-anchor="middle">1</text>
<text x="46" y="52" fill="#e8e8ea" font-size="13.5">Start — Ondrel Vane</text>
<circle cx="30" cy="72" r="9" fill="#d9534f"/>
<text x="30" y="75.5" fill="#11160f" font-size="11" font-weight="bold" text-anchor="middle">2</text>
<text x="46" y="76" fill="#e8e8ea" font-size="13.5">8× Drowned Votary</text>
<circle cx="30" cy="96" r="9" fill="#46b8da"/>
<text x="30" y="99.5" fill="#11160f" font-size="11" font-weight="bold" text-anchor="middle">3</text>
<text x="46" y="100" fill="#e8e8ea" font-size="13.5">Drowned Offering — from Drowned Votary</text>
<circle cx="30" cy="120" r="9" fill="#5cb85c"/>
<text x="30" y="123.5" fill="#11160f" font-size="11" font-weight="bold" text-anchor="middle">4</text>
<text x="46" y="124" fill="#e8e8ea" font-size="13.5">Turn in — Ondrel Vane</text>
</svg>