<svg xmlns="http://www.w3.org/2000/svg" viewBox="0 0 100 100" width="100" height="100">
<defs><radialGradient id="g" cx="50%" cy="40%" r="70%">
<stop offset="0%" stop-color="#54585b"/><stop offset="100%" stop-color="#2f3337"/></radialGradient></defs>
<rect x="2" y="2" width="96" height="96" rx="14" fill="url(#g)" stroke="#d9534f" stroke-width="3.5"/>
<g fill="#d6eaf8" stroke="#606970" stroke-width="2.2" stroke-linejoin="round" stroke-linecap="round">
        <path d="M44 52 q-26 -10 -34 -2 M46 58 q-28 2 -34 12 M54 52 q26 -10 34 -2 M52 58 q28 2 34 12
                 M44 56 q-24 4 -28 16 M54 56 q24 4 28 16 M46 50 q-22 -14 -30 -10 M52 50 q22 -14 30 -10" fill="none"/>
        <ellipse cx="50" cy="62" rx="18" ry="15"/>
        <circle cx="50" cy="46" r="11"/>
        <circle cx="46" cy="44" r="1.8" fill="#606970" stroke="none"/>
        <circle cx="54" cy="44" r="1.8" fill="#606970" stroke="none"/></g>
</svg>