<svg xmlns="http://www.w3.org/2000/svg" viewBox="0 0 100 100" width="100" height="100">
<defs><radialGradient id="g" cx="50%" cy="40%" r="70%">
<stop offset="0%" stop-color="#505458"/><stop offset="100%" stop-color="#292e33"/></radialGradient></defs>
<rect x="2" y="2" width="96" height="96" rx="14" fill="url(#g)" stroke="#cfd8dc" stroke-width="3"/>
<g fill="#bcd2e6" stroke="#555e67" stroke-width="2.2" stroke-linejoin="round" stroke-linecap="round">
        <path d="M30 60 q-16 -6 -18 -22 q14 6 20 14"/>
        <path d="M30 58 q18 -22 40 -16 q12 4 14 16 q-2 12 -16 12 q-20 2 -30 -6 z"/>
        <path d="M70 44 q12 -8 18 -4 q-4 8 -14 10" />
        <circle cx="78" cy="46" r="1.8" fill="#555e67" stroke="none"/>
        <path d="M40 64 q4 12 -2 16 M58 60 q6 14 0 18" fill="none"/></g>
</svg>