<svg xmlns="http://www.w3.org/2000/svg" viewBox="0 0 1000 1626" font-family="Segoe UI, Helvetica, Arial, sans-serif">
<rect width="1000" height="1626" fill="#1f2a24"/>
<circle cx="500.0" cy="414.9" r="36.1" fill="#2f6f8f" opacity="0.28"/>
<circle cx="463.9" cy="443.3" r="20.6" fill="#2f6f8f" opacity="0.28"/>
<circle cx="799.0" cy="577.3" r="28.4" fill="#2f6f8f" opacity="0.28"/>
<circle cx="396.9" cy="891.8" r="25.8" fill="#2f6f8f" opacity="0.28"/>
<path d="M664.9 103.1 L664.9 221.6 L664.9 350.5" fill="none" stroke="#8a7a55" stroke-width="3" opacity="0.35"/>
<path d="M664.9 350.5 L577.3 530.9 L525.8 711.3 L474.2 866.0" fill="none" stroke="#8a7a55" stroke-width="3" opacity="0.35"/>
<path d="M474.2 866.0 L603.1 1072.2 L628.9 1329.9 L628.9 1376.3" fill="none" stroke="#8a7a55" stroke-width="3" opacity="0.35"/>
<path d="M603.1 1072.2 L809.3 969.1" fill="none" stroke="#8a7a55" stroke-width="3" opacity="0.35"/>
<path d="M474.2 866.0 L319.6 1149.5 L319.6 1304.1" fill="none" stroke="#8a7a55" stroke-width="3" opacity="0.35"/>
<path d="M603.1 1072.2 L530.9 1329.9 L525.8 1523.2" fill="none" stroke="#8a7a55" stroke-width="3" opacity="0.35"/>
<path d="M474.2 866.0 L335.1 721.6 L216.5 515.5 L103.1 329.9" fill="none" stroke="#8a7a55" stroke-width="3" opacity="0.35"/>
<circle cx="664.9" cy="350.5" r="61.9" fill="#caa15a" opacity="0.08" stroke="#caa15a" stroke-width="1" stroke-opacity="0.3"/>
<circle cx="809.3" cy="969.1" r="4" fill="#3a4a42"/>
<circle cx="850.5" cy="927.8" r="4" fill="#3a4a42"/>
<circle cx="541.2" cy="829.9" r="4" fill="#3a4a42"/>
<circle cx="386.6" cy="1082.5" r="4" fill="#3a4a42"/>
<circle cx="778.4" cy="881.4" r="4" fill="#3a4a42"/>
<circle cx="703.6" cy="1293.8" r="4" fill="#3a4a42"/>
<circle cx="366.0" cy="1324.7" r="4" fill="#3a4a42"/>
<circle cx="672.7" cy="337.6" r="4" fill="#3a4a42"/>
<circle cx="649.5" cy="371.1" r="4" fill="#3a4a42"/>
<circle cx="896.9" cy="866.0" r="4" fill="#3a4a42"/>
<text x="664.9" y="350.5" fill="#eef4ee" font-size="11" font-style="italic" text-anchor="middle" stroke="#10160f" stroke-width="0.8" paint-order="stroke">Wyrmwatch</text>
<text x="551.5" y="453.6" fill="#eef4ee" font-size="11" font-style="italic" text-anchor="middle" stroke="#10160f" stroke-width="0.8" paint-order="stroke">The Gatewood</text>
<text x="474.2" y="866.0" fill="#eef4ee" font-size="11" font-style="italic" text-anchor="middle" stroke="#10160f" stroke-width="0.8" paint-order="stroke">Cinder Dunes</text>
<text x="809.3" y="969.1" fill="#eef4ee" font-size="11" font-style="italic" text-anchor="middle" stroke="#10160f" stroke-width="0.8" paint-order="stroke">Trollmoot</text>
<text x="670.1" y="690.7" fill="#eef4ee" font-size="11" font-style="italic" text-anchor="middle" stroke="#10160f" stroke-width="0.8" paint-order="stroke">The Last Keep</text>
<text x="319.6" y="1304.1" fill="#eef4ee" font-size="11" font-style="italic" text-anchor="middle" stroke="#10160f" stroke-width="0.8" paint-order="stroke">Bloodglass Fields</text>
<text x="628.9" y="1433.0" fill="#eef4ee" font-size="11" font-style="italic" text-anchor="middle" stroke="#10160f" stroke-width="0.8" paint-order="stroke">Drakemaw Caldera</text>
<path d="M672.7 337.6 L463.9 956.2" fill="none" stroke="#e6bb6a" stroke-width="2.5" stroke-dasharray="7 6" opacity="0.85"/>
<g class="qstep" data-keys="giver,turnin" data-steps="1,3">
<circle cx="672.7" cy="337.6" r="21" fill="#f0c419" opacity="0.18"/>
<circle cx="672.7" cy="337.6" r="14" fill="#f0c419" stroke="#11160f" stroke-width="2"/>
<text x="672.7" y="342.6" fill="#11160f" font-size="15" font-weight="bold" text-anchor="middle">1·3</text>
</g>
<g class="qstep" data-keys="ashbone_raider" data-steps="2">
<circle cx="463.9" cy="956.2" r="21" fill="#d9534f" opacity="0.18"/>
<circle cx="463.9" cy="956.2" r="14" fill="#d9534f" stroke="#11160f" stroke-width="2"/>
<text x="463.9" y="961.2" fill="#11160f" font-size="15" font-weight="bold" text-anchor="middle">2</text>
</g>
<rect x="10" y="10" width="360" height="112" rx="10" fill="#11160f" opacity="0.82"/>
<text x="22" y="34" fill="#cfe3d6" font-size="14" font-weight="bold">Where to go — N ↑</text>
<circle cx="30" cy="48" r="9" fill="#f0c419"/>
<text x="30" y="51.5" fill="#11160f" font-size="11" font-weight="bold" text-anchor="middle">1</text>
<text x="46" y="52" fill="#e8e8ea" font-size="13.5">Start — Gatecaptain Brannoc</text>
<circle cx="30" cy="72" r="9" fill="#d9534f"/>
<text x="30" y="75.5" fill="#11160f" font-size="11" font-weight="bold" text-anchor="middle">2</text>
<text x="46" y="76" fill="#e8e8ea" font-size="13.5">10× Ashbone Raider</text>
<circle cx="30" cy="96" r="9" fill="#5cb85c"/>
<text x="30" y="99.5" fill="#11160f" font-size="11" font-weight="bold" text-anchor="middle">3</text>
<text x="46" y="100" fill="#e8e8ea" font-size="13.5">Turn in — Gatecaptain Brannoc</text>
</svg>