<svg xmlns="http://www.w3.org/2000/svg" viewBox="0 0 1000 1372" font-family="Segoe UI, Helvetica, Arial, sans-serif">
<rect width="1000" height="1372" fill="#1f2a24"/>
<circle cx="199.0" cy="716.6" r="92.9" fill="#2f6f8f" opacity="0.28"/>
<circle cx="650.2" cy="902.3" r="66.3" fill="#2f6f8f" opacity="0.28"/>
<circle cx="384.8" cy="1088.1" r="53.1" fill="#2f6f8f" opacity="0.28"/>
<path d="M491.0 106.2 L491.0 371.5 L469.7 530.8 L491.0 690.0" fill="none" stroke="#8a7a55" stroke-width="3" opacity="0.35"/>
<path d="M501.6 711.3 L610.4 785.6 L735.1 822.7 L761.7 934.2 L729.8 1008.5" fill="none" stroke="#8a7a55" stroke-width="3" opacity="0.35"/>
<path d="M475.1 711.3 L384.8 875.8 L278.7 1008.5" fill="none" stroke="#8a7a55" stroke-width="3" opacity="0.35"/>
<path d="M496.3 721.9 L517.5 955.4 L544.1 1141.2 L610.4 1260.6" fill="none" stroke="#8a7a55" stroke-width="3" opacity="0.35"/>
<circle cx="491.0" cy="690.0" r="53.1" fill="#caa15a" opacity="0.08" stroke="#caa15a" stroke-width="1" stroke-opacity="0.3"/>
<circle cx="384.8" cy="504.2" r="4" fill="#3a4a42"/>
<circle cx="583.9" cy="491.0" r="4" fill="#3a4a42"/>
<circle cx="273.4" cy="618.4" r="4" fill="#3a4a42"/>
<circle cx="172.5" cy="822.7" r="4" fill="#3a4a42"/>
<circle cx="140.7" cy="777.6" r="4" fill="#3a4a42"/>
<circle cx="676.8" cy="690.0" r="4" fill="#3a4a42"/>
<circle cx="743.1" cy="796.2" r="4" fill="#3a4a42"/>
<circle cx="751.1" cy="817.4" r="4" fill="#3a4a42"/>
<circle cx="729.8" cy="1008.5" r="4" fill="#3a4a42"/>
<circle cx="796.2" cy="1088.1" r="4" fill="#3a4a42"/>
<circle cx="804.1" cy="1101.4" r="4" fill="#3a4a42"/>
<circle cx="278.7" cy="1008.5" r="4" fill="#3a4a42"/>
<circle cx="212.3" cy="1101.4" r="4" fill="#3a4a42"/>
<circle cx="172.5" cy="1167.7" r="4" fill="#3a4a42"/>
<circle cx="530.8" cy="1141.2" r="4" fill="#3a4a42"/>
<circle cx="424.6" cy="1194.3" r="4" fill="#3a4a42"/>
<circle cx="477.7" cy="1220.8" r="4" fill="#3a4a42"/>
<circle cx="538.7" cy="1146.5" r="4" fill="#3a4a42"/>
<circle cx="554.7" cy="1199.6" r="4" fill="#3a4a42"/>
<circle cx="491.0" cy="1247.3" r="4" fill="#3a4a42"/>
<circle cx="682.1" cy="1029.7" r="4" fill="#3a4a42"/>
<circle cx="782.9" cy="1061.6" r="4" fill="#3a4a42"/>
<circle cx="498.9" cy="700.6" r="4" fill="#3a4a42"/>
<circle cx="469.7" cy="679.4" r="4" fill="#3a4a42"/>
<circle cx="480.4" cy="711.3" r="4" fill="#3a4a42"/>
<circle cx="517.5" cy="676.8" r="4" fill="#3a4a42"/>
<circle cx="506.9" cy="721.9" r="4" fill="#3a4a42"/>
<circle cx="514.9" cy="698.0" r="4" fill="#3a4a42"/>
<circle cx="453.8" cy="698.0" r="4" fill="#3a4a42"/>
<circle cx="461.8" cy="731.2" r="4" fill="#3a4a42"/>
<text x="491.0" y="690.0" fill="#eef4ee" font-size="11" font-style="italic" text-anchor="middle" stroke="#10160f" stroke-width="0.8" paint-order="stroke">Fenbridge</text>
<text x="384.8" y="504.2" fill="#eef4ee" font-size="11" font-style="italic" text-anchor="middle" stroke="#10160f" stroke-width="0.8" paint-order="stroke">Prowler Reeds</text>
<text x="212.3" y="690.0" fill="#eef4ee" font-size="11" font-style="italic" text-anchor="middle" stroke="#10160f" stroke-width="0.8" paint-order="stroke">Deepfen Shallows</text>
<text x="703.3" y="729.8" fill="#eef4ee" font-size="11" font-style="italic" text-anchor="middle" stroke="#10160f" stroke-width="0.8" paint-order="stroke">Widow Thicket</text>
<text x="756.4" y="1048.3" fill="#eef4ee" font-size="11" font-style="italic" text-anchor="middle" stroke="#10160f" stroke-width="0.8" paint-order="stroke">Drowned Chapel</text>
<text x="238.9" y="1061.6" fill="#eef4ee" font-size="11" font-style="italic" text-anchor="middle" stroke="#10160f" stroke-width="0.8" paint-order="stroke">Troll Mounds</text>
<text x="491.0" y="1181.0" fill="#eef4ee" font-size="11" font-style="italic" text-anchor="middle" stroke="#10160f" stroke-width="0.8" paint-order="stroke">Gravecaller Encampment</text>
<text x="610.4" y="1260.6" fill="#eef4ee" font-size="11" font-style="italic" text-anchor="middle" stroke="#10160f" stroke-width="0.8" paint-order="stroke">The Sunken Bastion</text>
<path d="M469.7 679.4 L477.7 1220.8 L508.2 1183.7" fill="none" stroke="#e6bb6a" stroke-width="2.5" stroke-dasharray="7 6" opacity="0.85"/>
<g class="qstep" data-keys="giver,turnin" data-steps="1,4">
<circle cx="469.7" cy="679.4" r="21" fill="#f0c419" opacity="0.18"/>
<circle cx="469.7" cy="679.4" r="14" fill="#f0c419" stroke="#11160f" stroke-width="2"/>
<text x="469.7" y="684.4" fill="#11160f" font-size="15" font-weight="bold" text-anchor="middle">1·4</text>
</g>
<g class="qstep" data-keys="gravecaller_summoner" data-steps="2">
<circle cx="477.7" cy="1220.8" r="21" fill="#d9534f" opacity="0.18"/>
<circle cx="477.7" cy="1220.8" r="14" fill="#d9534f" stroke="#11160f" stroke-width="2"/>
<text x="477.7" y="1225.8" fill="#11160f" font-size="15" font-weight="bold" text-anchor="middle">2</text>
</g>
<g class="qstep" data-keys="cult_cipher" data-steps="3">
<circle cx="508.2" cy="1183.7" r="21" fill="#46b8da" opacity="0.18"/>
<circle cx="508.2" cy="1183.7" r="14" fill="#46b8da" stroke="#11160f" stroke-width="2"/>
<text x="508.2" y="1188.7" fill="#11160f" font-size="15" font-weight="bold" text-anchor="middle">3</text>
</g>
<rect x="10" y="10" width="360" height="136" rx="10" fill="#11160f" opacity="0.82"/>
<text x="22" y="34" fill="#cfe3d6" font-size="14" font-weight="bold">Where to go — N ↑</text>
<circle cx="30" cy="48" r="9" fill="#f0c419"/>
<text x="30" y="51.5" fill="#11160f" font-size="11" font-weight="bold" text-anchor="middle">1</text>
<text x="46" y="52" fill="#e8e8ea" font-size="13.5">Start — Brother Aldric</text>
<circle cx="30" cy="72" r="9" fill="#d9534f"/>
<text x="30" y="75.5" fill="#11160f" font-size="11" font-weight="bold" text-anchor="middle">2</text>
<text x="46" y="76" fill="#e8e8ea" font-size="13.5">8× Gravecaller Summoner</text>
<circle cx="30" cy="96" r="9" fill="#46b8da"/>
<text x="30" y="99.5" fill="#11160f" font-size="11" font-weight="bold" text-anchor="middle">3</text>
<text x="46" y="100" fill="#e8e8ea" font-size="13.5">Gravecaller Cipher — from Gravecaller Summoner/Gravecaller Mender</text>
<circle cx="30" cy="120" r="9" fill="#5cb85c"/>
<text x="30" y="123.5" fill="#11160f" font-size="11" font-weight="bold" text-anchor="middle">4</text>
<text x="46" y="124" fill="#e8e8ea" font-size="13.5">Turn in — Brother Aldric</text>
</svg>