<svg xmlns="http://www.w3.org/2000/svg" viewBox="0 0 1000 2000" font-family="Segoe UI, Helvetica, Arial, sans-serif">
<rect width="1000" height="2000" fill="#1f2a24"/>
<circle cx="480.3" cy="1254.5" r="93.2" fill="#2f6f8f" opacity="0.28"/>
<circle cx="580.6" cy="1304.7" r="50.2" fill="#2f6f8f" opacity="0.28"/>
<circle cx="372.8" cy="1297.5" r="46.6" fill="#2f6f8f" opacity="0.28"/>
<circle cx="179.2" cy="788.5" r="35.8" fill="#2f6f8f" opacity="0.28"/>
<circle cx="824.4" cy="1663.1" r="32.3" fill="#2f6f8f" opacity="0.28"/>
<path d="M516.1 143.4 L458.8 351.3 L430.1 888.9 L480.3 1039.4" fill="none" stroke="#8a7a55" stroke-width="3" opacity="0.35"/>
<path d="M437.3 960.6 L301.1 853.0 L222.2 759.9" fill="none" stroke="#8a7a55" stroke-width="3" opacity="0.35"/>
<path d="M523.3 960.6 L641.6 781.4 L731.2 638.0" fill="none" stroke="#8a7a55" stroke-width="3" opacity="0.35"/>
<path d="M430.1 1103.9 L272.4 1304.7 L229.4 1534.1" fill="none" stroke="#8a7a55" stroke-width="3" opacity="0.35"/>
<path d="M537.6 1111.1 L724.0 1340.5 L795.7 1591.4" fill="none" stroke="#8a7a55" stroke-width="3" opacity="0.35"/>
<path d="M430.1 1103.9 L322.6 1168.5 L293.9 1426.5 L394.3 1677.4 L408.6 1856.6" fill="none" stroke="#8a7a55" stroke-width="3" opacity="0.35"/>
<circle cx="480.3" cy="1039.4" r="86.0" fill="#caa15a" opacity="0.08" stroke="#caa15a" stroke-width="1" stroke-opacity="0.3"/>
<circle cx="695.3" cy="695.3" r="4" fill="#3a4a42"/>
<circle cx="265.2" cy="853.0" r="4" fill="#3a4a42"/>
<circle cx="587.8" cy="888.9" r="4" fill="#3a4a42"/>
<circle cx="207.9" cy="724.0" r="4" fill="#3a4a42"/>
<circle cx="243.7" cy="1505.4" r="4" fill="#3a4a42"/>
<circle cx="652.3" cy="1347.7" r="4" fill="#3a4a42"/>
<circle cx="759.9" cy="1591.4" r="4" fill="#3a4a42"/>
<circle cx="487.5" cy="1032.3" r="4" fill="#3a4a42"/>
<circle cx="512.5" cy="229.4" r="4" fill="#3a4a42"/>
<circle cx="494.6" cy="1132.6" r="4" fill="#3a4a42"/>
<circle cx="236.6" cy="767.0" r="4" fill="#3a4a42"/>
<text x="480.3" y="1039.4" fill="#eef4ee" font-size="11" font-style="italic" text-anchor="middle" stroke="#10160f" stroke-width="0.8" paint-order="stroke">Lanternmere</text>
<text x="516.1" y="236.6" fill="#eef4ee" font-size="11" font-style="italic" text-anchor="middle" stroke="#10160f" stroke-width="0.8" paint-order="stroke">The Goldmelt</text>
<text x="222.2" y="752.7" fill="#eef4ee" font-size="11" font-style="italic" text-anchor="middle" stroke="#10160f" stroke-width="0.8" paint-order="stroke">The Gilded Orchard</text>
<text x="731.2" y="638.0" fill="#eef4ee" font-size="11" font-style="italic" text-anchor="middle" stroke="#10160f" stroke-width="0.8" paint-order="stroke">Harvest Hollow</text>
<text x="480.3" y="1254.5" fill="#eef4ee" font-size="11" font-style="italic" text-anchor="middle" stroke="#10160f" stroke-width="0.8" paint-order="stroke">The Great Mere</text>
<text x="229.4" y="1534.1" fill="#eef4ee" font-size="11" font-style="italic" text-anchor="middle" stroke="#10160f" stroke-width="0.8" paint-order="stroke">Cindermaple Rise</text>
<text x="781.4" y="1605.7" fill="#eef4ee" font-size="11" font-style="italic" text-anchor="middle" stroke="#10160f" stroke-width="0.8" paint-order="stroke">The Leaning Monolith</text>
<path d="M236.6 767.0 L207.9 724.0" fill="none" stroke="#e6bb6a" stroke-width="2.5" stroke-dasharray="7 6" opacity="0.85"/>
<g class="qstep" data-keys="giver,amberfall_sap_bucket,turnin" data-steps="1,3,4">
<circle cx="236.6" cy="767.0" r="21" fill="#f0c419" opacity="0.18"/>
<circle cx="236.6" cy="767.0" r="14" fill="#f0c419" stroke="#11160f" stroke-width="2"/>
<text x="236.6" y="772.0" fill="#11160f" font-size="15" font-weight="bold" text-anchor="middle">1·3·4</text>
</g>
<g class="qstep" data-keys="harvest_sprite" data-steps="2">
<circle cx="207.9" cy="724.0" r="21" fill="#d9534f" opacity="0.18"/>
<circle cx="207.9" cy="724.0" r="14" fill="#d9534f" stroke="#11160f" stroke-width="2"/>
<text x="207.9" y="729.0" fill="#11160f" font-size="15" font-weight="bold" text-anchor="middle">2</text>
</g>
<rect x="10" y="10" width="360" height="136" rx="10" fill="#11160f" opacity="0.82"/>
<text x="22" y="34" fill="#cfe3d6" font-size="14" font-weight="bold">Where to go — N ↑</text>
<circle cx="30" cy="48" r="9" fill="#f0c419"/>
<text x="30" y="51.5" fill="#11160f" font-size="11" font-weight="bold" text-anchor="middle">1</text>
<text x="46" y="52" fill="#e8e8ea" font-size="13.5">Start — Orchardist Pomeline</text>
<circle cx="30" cy="72" r="9" fill="#d9534f"/>
<text x="30" y="75.5" fill="#11160f" font-size="11" font-weight="bold" text-anchor="middle">2</text>
<text x="46" y="76" fill="#e8e8ea" font-size="13.5">8× Harvest Sprite</text>
<circle cx="30" cy="96" r="9" fill="#9b8cff"/>
<text x="30" y="99.5" fill="#11160f" font-size="11" font-weight="bold" text-anchor="middle">3</text>
<text x="46" y="100" fill="#e8e8ea" font-size="13.5">Sap-Tap Bucket recovered</text>
<circle cx="30" cy="120" r="9" fill="#5cb85c"/>
<text x="30" y="123.5" fill="#11160f" font-size="11" font-weight="bold" text-anchor="middle">4</text>
<text x="46" y="124" fill="#e8e8ea" font-size="13.5">Turn in — Orchardist Pomeline</text>
</svg>