<svg xmlns="http://www.w3.org/2000/svg" viewBox="0 0 1000 1038" font-family="Segoe UI, Helvetica, Arial, sans-serif">
<rect width="1000" height="1038" fill="#1f2a24"/>
<line x1="37.5" y1="0" x2="37.5" y2="1038" stroke="#2c3a32" stroke-width="1"/>
<line x1="193.8" y1="0" x2="193.8" y2="1038" stroke="#2c3a32" stroke-width="1"/>
<line x1="350.0" y1="0" x2="350.0" y2="1038" stroke="#2c3a32" stroke-width="1"/>
<line x1="506.3" y1="0" x2="506.3" y2="1038" stroke="#2c3a32" stroke-width="1"/>
<line x1="662.5" y1="0" x2="662.5" y2="1038" stroke="#2c3a32" stroke-width="1"/>
<line x1="818.8" y1="0" x2="818.8" y2="1038" stroke="#2c3a32" stroke-width="1"/>
<line x1="975.0" y1="0" x2="975.0" y2="1038" stroke="#2c3a32" stroke-width="1"/>
<line x1="0" y1="6.3" x2="1000" y2="6.3" stroke="#2c3a32" stroke-width="1"/>
<line x1="0" y1="162.5" x2="1000" y2="162.5" stroke="#2c3a32" stroke-width="1"/>
<line x1="0" y1="318.8" x2="1000" y2="318.8" stroke="#2c3a32" stroke-width="1"/>
<line x1="0" y1="475.0" x2="1000" y2="475.0" stroke="#2c3a32" stroke-width="1"/>
<line x1="0" y1="631.3" x2="1000" y2="631.3" stroke="#2c3a32" stroke-width="1"/>
<line x1="0" y1="787.5" x2="1000" y2="787.5" stroke="#2c3a32" stroke-width="1"/>
<line x1="0" y1="943.8" x2="1000" y2="943.8" stroke="#2c3a32" stroke-width="1"/>
<circle cx="218.8" cy="750.0" r="93.8" fill="#2f6f8f" opacity="0.55"/>
<path d="M506.3 500.0 L481.3 568.8 L459.4 646.9 L500.0 718.8" fill="none" stroke="#8a7a55" stroke-width="3" opacity="0.7"/>
<path d="M531.3 481.3 L600.0 500.0 L678.1 512.5" fill="none" stroke="#8a7a55" stroke-width="3" opacity="0.7"/>
<path d="M525.0 456.3 L600.0 381.3 L662.5 318.8 L709.4 271.9" fill="none" stroke="#8a7a55" stroke-width="3" opacity="0.7"/>
<path d="M481.3 493.8 L396.9 553.1 L325.0 625.0 L300.0 656.3" fill="none" stroke="#8a7a55" stroke-width="3" opacity="0.7"/>
<path d="M487.5 456.3 L412.5 387.5 L334.4 334.4 L287.5 303.1" fill="none" stroke="#8a7a55" stroke-width="3" opacity="0.7"/>
<path d="M525.0 500.0 L615.6 584.4 L693.8 662.5 L750.0 706.3" fill="none" stroke="#8a7a55" stroke-width="3" opacity="0.7"/>
<circle cx="506.3" cy="475.0" r="81.3" fill="#caa15a" opacity="0.18" stroke="#caa15a" stroke-width="1.5"/>
<text x="506.3" y="475.0" fill="#f0d89a" font-size="15" font-weight="bold" text-anchor="middle">Eastbrook</text>
<text x="500.0" y="693.8" fill="#eef4ee" font-size="12" font-style="italic" text-anchor="middle" stroke="#10160f" stroke-width="0.8" paint-order="stroke">Wolf Run</text>
<text x="709.4" y="475.0" fill="#eef4ee" font-size="12" font-style="italic" text-anchor="middle" stroke="#10160f" stroke-width="0.8" paint-order="stroke">Boar Meadow</text>
<text x="231.3" y="731.3" fill="#eef4ee" font-size="12" font-style="italic" text-anchor="middle" stroke="#10160f" stroke-width="0.8" paint-order="stroke">Mirror Lake</text>
<text x="318.8" y="487.5" fill="#eef4ee" font-size="12" font-style="italic" text-anchor="middle" stroke="#10160f" stroke-width="0.8" paint-order="stroke">Sableweb</text>
<text x="243.8" y="275.0" fill="#eef4ee" font-size="12" font-style="italic" text-anchor="middle" stroke="#10160f" stroke-width="0.8" paint-order="stroke">Copper Dig</text>
<text x="743.8" y="237.5" fill="#eef4ee" font-size="12" font-style="italic" text-anchor="middle" stroke="#10160f" stroke-width="0.8" paint-order="stroke">Bandit Camp</text>
<text x="756.3" y="725.0" fill="#eef4ee" font-size="12" font-style="italic" text-anchor="middle" stroke="#10160f" stroke-width="0.8" paint-order="stroke">Fallen Chapel</text>
<text x="490.6" y="312.5" fill="#eef4ee" font-size="12" font-style="italic" text-anchor="middle" stroke="#10160f" stroke-width="0.8" paint-order="stroke">Reliquary Hill</text>
<text x="631.3" y="912.5" fill="#eef4ee" font-size="12" font-style="italic" text-anchor="middle" stroke="#10160f" stroke-width="0.8" paint-order="stroke">Brightwood Glade</text>
<text x="471.9" y="125.0" fill="#eef4ee" font-size="12" font-style="italic" text-anchor="middle" stroke="#10160f" stroke-width="0.8" paint-order="stroke">The Sowfield</text>
<circle cx="459.4" cy="646.9" r="6" fill="#d9534f" stroke="#11160f" stroke-width="1"/>
<text x="459.4" y="638.9" fill="#f3b1ae" font-size="11" text-anchor="middle" stroke="#11160f" stroke-width="0.6" paint-order="stroke">Forest Wolf ×7</text>
<circle cx="568.8" cy="693.8" r="6" fill="#d9534f" stroke="#11160f" stroke-width="1"/>
<text x="568.8" y="685.8" fill="#f3b1ae" font-size="11" text-anchor="middle" stroke="#11160f" stroke-width="0.6" paint-order="stroke">Forest Wolf ×6</text>
<circle cx="506.3" cy="771.9" r="6" fill="#d9534f" stroke="#11160f" stroke-width="1"/>
<text x="506.3" y="763.9" fill="#f3b1ae" font-size="11" text-anchor="middle" stroke="#11160f" stroke-width="0.6" paint-order="stroke">Old Greyjaw ×1</text>
<circle cx="678.1" cy="512.5" r="6" fill="#d9534f" stroke="#11160f" stroke-width="1"/>
<text x="678.1" y="504.5" fill="#f3b1ae" font-size="11" text-anchor="middle" stroke="#11160f" stroke-width="0.6" paint-order="stroke">Wild Boar ×6</text>
<circle cx="756.3" cy="428.1" r="6" fill="#d9534f" stroke="#11160f" stroke-width="1"/>
<text x="756.3" y="420.1" fill="#f3b1ae" font-size="11" text-anchor="middle" stroke="#11160f" stroke-width="0.6" paint-order="stroke">Wild Boar ×5</text>
<circle cx="875.0" cy="393.8" r="6" fill="#d9534f" stroke="#11160f" stroke-width="1"/>
<text x="875.0" y="385.8" fill="#f3b1ae" font-size="11" text-anchor="middle" stroke="#11160f" stroke-width="0.6" paint-order="stroke">Mogger ×1</text>
<circle cx="318.8" cy="490.6" r="6" fill="#d9534f" stroke="#11160f" stroke-width="1"/>
<text x="318.8" y="482.6" fill="#f3b1ae" font-size="11" text-anchor="middle" stroke="#11160f" stroke-width="0.6" paint-order="stroke">Sableweb Lurker ×7</text>
<circle cx="271.9" cy="653.1" r="6" fill="#d9534f" stroke="#11160f" stroke-width="1"/>
<text x="271.9" y="645.1" fill="#f3b1ae" font-size="11" text-anchor="middle" stroke="#11160f" stroke-width="0.6" paint-order="stroke">Mudfin Skulker ×8</text>
<circle cx="250.0" cy="281.3" r="6" fill="#d9534f" stroke="#11160f" stroke-width="1"/>
<text x="250.0" y="273.3" fill="#f3b1ae" font-size="11" text-anchor="middle" stroke="#11160f" stroke-width="0.6" paint-order="stroke">Deeprock Digger ×9</text>
<circle cx="709.4" cy="271.9" r="6" fill="#d9534f" stroke="#11160f" stroke-width="1"/>
<text x="709.4" y="263.9" fill="#f3b1ae" font-size="11" text-anchor="middle" stroke="#11160f" stroke-width="0.6" paint-order="stroke">Vale Bandit ×7</text>
<circle cx="787.5" cy="193.8" r="6" fill="#d9534f" stroke="#11160f" stroke-width="1"/>
<text x="787.5" y="185.8" fill="#f3b1ae" font-size="11" text-anchor="middle" stroke="#11160f" stroke-width="0.6" paint-order="stroke">Vale Bandit ×5</text>
<circle cx="793.8" cy="187.5" r="6" fill="#d9534f" stroke="#11160f" stroke-width="1"/>
<text x="793.8" y="179.5" fill="#f3b1ae" font-size="11" text-anchor="middle" stroke="#11160f" stroke-width="0.6" paint-order="stroke">Gorrak the Ruthless ×1</text>
<circle cx="756.3" cy="718.8" r="6" fill="#d9534f" stroke="#11160f" stroke-width="1"/>
<text x="756.3" y="710.8" fill="#f3b1ae" font-size="11" text-anchor="middle" stroke="#11160f" stroke-width="0.6" paint-order="stroke">Restless Bones ×8</text>
<circle cx="793.8" cy="756.3" r="6" fill="#d9534f" stroke="#11160f" stroke-width="1"/>
<text x="793.8" y="748.3" fill="#f3b1ae" font-size="11" text-anchor="middle" stroke="#11160f" stroke-width="0.6" paint-order="stroke">Captain Verlan ×1</text>
<rect x="683.5" y="289.8" width="8" height="8" transform="rotate(45 687.5 293.8)" fill="#5cb85c" stroke="#11160f" stroke-width="1"/>
<rect x="730.4" y="252.3" width="8" height="8" transform="rotate(45 734.4 256.3)" fill="#5cb85c" stroke="#11160f" stroke-width="1"/>
<rect x="771.0" y="214.8" width="8" height="8" transform="rotate(45 775.0 218.8)" fill="#5cb85c" stroke="#11160f" stroke-width="1"/>
<rect x="799.1" y="167.9" width="8" height="8" transform="rotate(45 803.1 171.9)" fill="#5cb85c" stroke="#11160f" stroke-width="1"/>
<rect x="702.3" y="233.5" width="8" height="8" transform="rotate(45 706.3 237.5)" fill="#5cb85c" stroke="#11160f" stroke-width="1"/>
<rect x="755.4" y="177.3" width="8" height="8" transform="rotate(45 759.4 181.3)" fill="#5cb85c" stroke="#11160f" stroke-width="1"/>
<text x="687.5" y="303.8" fill="#a7e3a7" font-size="11" text-anchor="middle" stroke="#11160f" stroke-width="0.6" paint-order="stroke">Stolen Supply Crate</text>
<rect x="764.8" y="746.0" width="8" height="8" transform="rotate(45 768.8 750.0)" fill="#5cb85c" stroke="#11160f" stroke-width="1"/>
<rect x="739.8" y="758.5" width="8" height="8" transform="rotate(45 743.8 762.5)" fill="#5cb85c" stroke="#11160f" stroke-width="1"/>
<text x="768.8" y="760.0" fill="#a7e3a7" font-size="11" text-anchor="middle" stroke="#11160f" stroke-width="0.6" paint-order="stroke">Gravecaller's Sigil</text>
<rect x="746.0" y="733.5" width="8" height="8" transform="rotate(45 750.0 737.5)" fill="#5cb85c" stroke="#11160f" stroke-width="1"/>
<rect x="761.6" y="746.0" width="8" height="8" transform="rotate(45 765.6 750.0)" fill="#5cb85c" stroke="#11160f" stroke-width="1"/>
<rect x="771.0" y="758.5" width="8" height="8" transform="rotate(45 775.0 762.5)" fill="#5cb85c" stroke="#11160f" stroke-width="1"/>
<text x="750.0" y="747.5" fill="#a7e3a7" font-size="11" text-anchor="middle" stroke="#11160f" stroke-width="0.6" paint-order="stroke">Weathered Ledger Page</text>
<rect x="746.0" y="739.8" width="8" height="8" transform="rotate(45 750.0 743.8)" fill="#5cb85c" stroke="#11160f" stroke-width="1"/>
<text x="750.0" y="753.8" fill="#a7e3a7" font-size="11" text-anchor="middle" stroke="#11160f" stroke-width="0.6" paint-order="stroke">Morthen's Grimoire</text>
<rect x="749.3" y="749.3" width="14" height="14" fill="#9b59b6" stroke="#11160f" stroke-width="1.5"/>
<text x="756.3" y="748.3" fill="#d6a7e3" font-size="11" text-anchor="middle" stroke="#11160f" stroke-width="0.6" paint-order="stroke">⚔ The Hollow Crypt</text>
<circle cx="506.3" cy="504.7" r="5.5" fill="#f0c419" stroke="#11160f" stroke-width="1"/>
<text x="506.3" y="496.7" fill="#ffe9a3" font-size="11" text-anchor="middle" stroke="#11160f" stroke-width="0.6" paint-order="stroke">The Merchant</text>
<circle cx="518.8" cy="493.8" r="5.5" fill="#f0c419" stroke="#11160f" stroke-width="1"/>
<text x="518.8" y="485.8" fill="#ffe9a3" font-size="11" text-anchor="middle" stroke="#11160f" stroke-width="0.6" paint-order="stroke">Marshal Redbrook</text>
<circle cx="484.4" cy="484.4" r="5.5" fill="#f0c419" stroke="#11160f" stroke-width="1"/>
<text x="484.4" y="476.4" fill="#ffe9a3" font-size="11" text-anchor="middle" stroke="#11160f" stroke-width="0.6" paint-order="stroke">Trader Wilkes</text>
<circle cx="540.6" cy="465.6" r="5.5" fill="#f0c419" stroke="#11160f" stroke-width="1"/>
<text x="540.6" y="457.6" fill="#ffe9a3" font-size="11" text-anchor="middle" stroke="#11160f" stroke-width="0.6" paint-order="stroke">Apothecary Lin</text>
<circle cx="462.5" cy="443.8" r="5.5" fill="#f0c419" stroke="#11160f" stroke-width="1"/>
<text x="462.5" y="435.8" fill="#ffe9a3" font-size="11" text-anchor="middle" stroke="#11160f" stroke-width="0.6" paint-order="stroke">Brother Aldric</text>
<circle cx="528.1" cy="526.6" r="5.5" fill="#f0c419" stroke="#11160f" stroke-width="1"/>
<text x="528.1" y="518.6" fill="#ffe9a3" font-size="11" text-anchor="middle" stroke="#11160f" stroke-width="0.6" paint-order="stroke">Smith Haldren</text>
<circle cx="456.3" cy="493.8" r="5.5" fill="#f0c419" stroke="#11160f" stroke-width="1"/>
<text x="456.3" y="485.8" fill="#ffe9a3" font-size="11" text-anchor="middle" stroke="#11160f" stroke-width="0.6" paint-order="stroke">Fisherman Brandt</text>
<circle cx="493.8" cy="431.3" r="5.5" fill="#f0c419" stroke="#11160f" stroke-width="1"/>
<text x="493.8" y="423.3" fill="#ffe9a3" font-size="11" text-anchor="middle" stroke="#11160f" stroke-width="0.6" paint-order="stroke">Foreman Odell</text>
<circle cx="546.9" cy="500.0" r="5.5" fill="#f0c419" stroke="#11160f" stroke-width="1"/>
<text x="546.9" y="492.0" fill="#ffe9a3" font-size="11" text-anchor="middle" stroke="#11160f" stroke-width="0.6" paint-order="stroke">Bursar Fernando</text>
<circle cx="487.5" cy="218.8" r="5.5" fill="#f0c419" stroke="#11160f" stroke-width="1"/>
<text x="487.5" y="210.8" fill="#ffe9a3" font-size="11" text-anchor="middle" stroke="#11160f" stroke-width="0.6" paint-order="stroke">Groundskeeper Bram</text>
<circle cx="553.1" cy="425.0" r="5.5" fill="#f0c419" stroke="#11160f" stroke-width="1"/>
<text x="553.1" y="417.0" fill="#ffe9a3" font-size="11" text-anchor="middle" stroke="#11160f" stroke-width="0.6" paint-order="stroke">Saul the Chronicler</text>
<text x="18" y="26" fill="#cfe3d6" font-size="13" font-weight="bold">Eastbrook Vale — N ↑</text>
<rect x="10" y="920" width="248" height="104" fill="#11160f" opacity="0.7" rx="4"/>
<rect x="18" y="927" width="11" height="11" fill="#f0c419"/>
<text x="36" y="936" fill="#cfe3d6" font-size="12">NPC (quest giver / turn-in)</text>
<rect x="18" y="945" width="11" height="11" fill="#d9534f"/>
<text x="36" y="954" fill="#cfe3d6" font-size="12">Mob camp (×count)</text>
<rect x="18" y="963" width="11" height="11" fill="#9b59b6"/>
<text x="36" y="972" fill="#cfe3d6" font-size="12">Dungeon entrance</text>
<rect x="18" y="981" width="11" height="11" fill="#5cb85c"/>
<text x="36" y="990" fill="#cfe3d6" font-size="12">Quest pickup (ground)</text>
<rect x="18" y="999" width="11" height="11" fill="#2f6f8f"/>
<text x="36" y="1008" fill="#cfe3d6" font-size="12">Water</text>
</svg>